<svg width="145" height="16" viewBox="0 0 145 16" fill="none" xmlns="http://www.w3.org/2000/svg">
<path d="M16.2641 0.738281L13.3434 4.49345H4.49787V6.37939H15.4254L12.6925 9.91341H4.51038V15.2291H0V0.738281H16.2641Z" fill="white"/>
<path d="M20.2525 15.2482L22.9645 11.518H26.5904C27.4582 11.518 28.4763 11.518 29.1689 11.5597C28.7809 11.0382 28.1717 10.1495 27.696 9.47353L25.0925 5.63491L18.2831 15.2648H12.9883L22.2928 2.1426C22.6035 1.64793 23.0341 1.23978 23.5447 0.956032C24.0553 0.672283 24.6293 0.522137 25.2135 0.519531C25.7895 0.522612 26.3552 0.67345 26.8564 0.957623C27.3575 1.2418 27.7773 1.6498 28.0757 2.1426L37.1382 15.2648L20.2525 15.2482Z" fill="white"/>
<path d="M52.1714 6.52595C55.7054 6.52595 57.6164 7.8486 57.6164 10.4939C57.6164 13.4647 55.8139 15.2463 51.3911 15.2463H37.8809L40.7682 11.5162H51.7374C52.8014 11.5162 53.2771 11.2116 53.2771 10.4522C53.2771 9.69281 52.8014 9.41326 51.7374 9.41326H43.8474C40.1173 9.41326 38.4024 7.7443 38.4024 5.24085C38.4024 2.50792 40.2258 0.730469 44.6277 0.730469H57.2242L54.341 4.48564H44.2813C43.2382 4.48564 42.7417 4.74433 42.7417 5.48285C42.7417 6.22137 43.2382 6.50092 44.2813 6.50092L52.1714 6.52595Z" fill="white"/>
<path d="M76.3303 0.738281L73.4097 4.49345H68.24V15.2291H63.7547V4.51014H56.9453L59.866 0.754968L76.3303 0.738281Z" fill="white"/>
<path d="M96.3878 7.98505C96.3878 13.1672 92.8329 15.4954 85.7857 15.4954C78.7385 15.4954 75.1836 13.1755 75.1836 7.98505C75.1836 2.79457 78.7176 0.503906 85.7857 0.503906C92.8538 0.503906 96.3878 2.79874 96.3878 7.98505ZM91.9233 7.98505C91.9233 4.85991 90.2961 4.27577 85.7857 4.27577C81.2753 4.27577 79.6481 4.85991 79.6481 7.98505C79.6481 11.1102 81.2753 11.711 85.7857 11.711C90.2961 11.711 91.9233 11.106 91.9233 7.98505Z" fill="white"/>
<path d="M119.245 15.2473H113.241L110.007 11.4087H103.115V15.2473H98.625V7.82872H111.247C112.632 7.82872 113.717 7.19869 113.717 6.20148C113.717 5.07493 112.786 4.53252 111.247 4.53252H98.625L101.546 0.777344H110.875C114.171 0.777344 118.335 1.81627 118.335 5.95948C118.361 7.05266 117.991 8.11831 117.295 8.96121C116.598 9.80412 115.621 10.3679 114.543 10.5491C115.268 11.1329 115.949 11.7703 116.579 12.4559L119.245 15.2473Z" fill="white"/>
<path d="M134.978 15.2525H129.316L136.43 7.24982C137.264 6.25298 138.154 5.30432 139.096 4.40841C138.262 4.47517 137.277 4.51689 134.999 4.51689H127.146L130.009 0.761719H142.526C144.174 0.761719 145 1.65045 145 2.68938C144.978 3.31594 144.722 3.91151 144.283 4.35834L134.978 15.2525Z" fill="white"/>
</svg>
